<svg width="165" height="85" viewBox="0 0 165 85" fill="none" xmlns="http://www.w3.org/2000/svg">
<path d="M14.5314 63.5514L14.4763 63.5207C10.1004 59.1325 6.385 53.9159 4.01815 48.8526C1.43112 43.4825 0 37.4987 0 32.0058C0 20.8974 5.91713 10.0344 15.4121 3.68236L15.4396 3.65167H20.2834L21.109 0H25.0996L20.1183 27.1267H15.2194L20.0082 5.1553C16.8432 7.76364 13.7333 11.0164 11.449 14.085C7.07304 20.0382 4.84379 26.6357 4.84379 33.7243C4.84379 38.9716 5.97218 43.8201 8.25646 48.5457C9.41237 50.97 12.7425 57.2607 18.467 63.2138L18.7697 63.5207H14.5314V63.5514ZM24.6318 63.5514L30.8792 28.6917C31.7874 28.4462 33.246 28.17 33.8515 28.17C34.4295 28.17 34.8423 28.3542 35.1175 28.7531C35.4202 29.1827 35.5854 29.9498 35.5854 31.0239C35.5854 32.773 35.3377 34.3994 34.7597 36.2712C34.5395 37.1918 34.0442 38.5113 33.6313 39.524L33.5212 39.7695H36.7137L36.7688 39.6774C37.732 37.6521 38.3926 35.7495 38.9155 34.1539C39.5485 31.9751 39.8237 30.1953 39.8237 28.5383C39.8237 25.4083 38.7228 23.9046 36.466 23.8739C35.3652 23.8739 34.8423 23.9967 34.4295 24.1808C33.9065 24.4263 33.4662 24.7025 32.8607 25.3469C32.1727 26.0834 31.1269 27.3415 31.1269 27.3415L31.8975 22.9534H26.4757L22.0448 63.5514H24.6318ZM42.741 84.7556L63.1069 22.0328H58.0154L47.5572 60.0224L48.1077 24.4263H42.6859L45.0803 63.5514H46.2362L40.2365 84.7556H42.741ZM70.9781 63.5514L71.0331 63.49C74.3357 59.8076 77.0053 55.4195 79.0144 50.3562C80.6106 46.2443 81.5739 41.5493 81.5739 37.8362C81.5739 35.3506 81.0785 32.2513 80.2528 29.735C79.3997 27.1881 77.5007 23.475 75.8769 21.0815L75.8219 20.9894L70.2625 22.2783L70.4552 22.4931C71.1432 23.2602 71.501 23.7512 72.3541 24.9787C72.5468 25.2548 72.767 25.5924 73.0422 25.9606H69.0516L68.9965 25.9913C66.9324 27.9859 65.2261 30.3794 63.7949 33.356C62.1712 36.977 61.318 41.2731 61.318 45.784C61.318 49.1288 61.7859 52.4122 62.7216 55.5422C63.2445 57.2913 64.2903 60.0838 66.2719 63.4593L66.3269 63.5514H70.9781ZM76.1796 33.1412C76.7851 35.1051 77.0603 37.1611 77.0603 39.7695C77.0603 44.8634 75.8769 48.8526 75.1889 50.7858C73.6752 55.2047 71.556 59.0098 68.7213 62.4466C67.1801 59.6542 66.6297 57.5061 66.2169 55.7263C65.6664 53.701 65.3086 51.7064 65.3086 48.0855C65.3086 43.4825 66.1343 39.2478 67.758 35.5347C69.1617 32.2206 71.0882 29.3975 73.6477 26.9426C74.9412 29.3975 75.6567 31.5762 76.1796 33.1412ZM109.123 64.2264L111.104 63.49L128.801 7.91707L121.7 63.5514H124.645L134.278 1.13539L127.177 0.0920593L111.077 55.3581L109.068 2.20941H101.472L96.463 63.5514H99.2427L104.995 9.4207L109.123 64.2264ZM136.122 63.5514L143.002 24.4263H137.745L133.507 63.5514H136.122ZM145.011 15.3125C145.011 17.2457 143.607 18.8107 141.874 18.8107C140.14 18.8107 138.736 17.2457 138.736 15.3125C138.736 13.3792 140.14 11.8142 141.874 11.8142C143.58 11.7835 145.011 13.3792 145.011 15.3125ZM154.341 63.5514L154.396 63.49C157.698 59.8076 160.368 55.4195 162.377 50.3562C163.973 46.2443 164.937 41.5493 164.937 37.8362C164.937 35.3506 164.441 32.2513 163.616 29.735C162.762 27.1881 160.863 23.475 159.24 21.0815L159.185 20.9894L153.625 22.2783L153.818 22.4931C154.506 23.2602 154.864 23.7512 155.717 24.9787C155.91 25.2548 156.13 25.5924 156.405 25.9606H152.414L152.359 25.9913C150.295 27.9859 148.589 30.3794 147.158 33.356C145.534 36.977 144.681 41.2731 144.681 45.784C144.681 49.1288 145.149 52.4122 146.084 55.5422C146.607 57.2913 147.653 60.0838 149.635 63.4593L149.69 63.5514H154.341ZM159.542 33.1412C160.148 35.1051 160.423 37.1611 160.423 39.7695C160.423 44.8634 159.24 48.8526 158.552 50.7858C157.038 55.2047 154.919 59.0098 152.084 62.4466C150.543 59.6235 149.992 57.5061 149.58 55.7263C149.029 53.701 148.671 51.7064 148.671 48.0855C148.671 43.4825 149.497 39.2478 151.121 35.5347C152.524 32.2206 154.451 29.3975 157.01 26.9426C158.304 29.4282 159.02 31.5762 159.542 33.1412Z" fill="#B4AAA6"/>
<path d="M14.5314 63.5514L14.4763 63.5207C10.1004 59.1325 6.385 53.9159 4.01815 48.8526C1.43112 43.4825 0 37.4987 0 32.0058C0 20.8974 5.91713 10.0344 15.4121 3.68236L15.4396 3.65167H20.2834L21.109 0H25.0996L20.1183 27.1267H15.2194L20.0082 5.1553C16.8432 7.76364 13.7333 11.0164 11.449 14.085C7.07304 20.0382 4.84379 26.6357 4.84379 33.7243C4.84379 38.9716 5.97218 43.8201 8.25646 48.5457C9.41237 50.97 12.7425 57.2607 18.467 63.2138L18.7697 63.5207H14.5314V63.5514ZM24.6318 63.5514L30.8792 28.6917C31.7874 28.4462 33.246 28.17 33.8515 28.17C34.4295 28.17 34.8423 28.3542 35.1175 28.7531C35.4202 29.1827 35.5854 29.9498 35.5854 31.0239C35.5854 32.773 35.3377 34.3994 34.7597 36.2712C34.5395 37.1918 34.0442 38.5113 33.6313 39.524L33.5212 39.7695H36.7137L36.7688 39.6774C37.732 37.6521 38.3926 35.7495 38.9155 34.1539C39.5485 31.9751 39.8237 30.1953 39.8237 28.5383C39.8237 25.4083 38.7228 23.9046 36.466 23.8739C35.3652 23.8739 34.8423 23.9967 34.4295 24.1808C33.9065 24.4263 33.4662 24.7025 32.8607 25.3469C32.1727 26.0834 31.1269 27.3415 31.1269 27.3415L31.8975 22.9534H26.4757L22.0448 63.5514H24.6318ZM42.741 84.7556L63.1069 22.0328H58.0154L47.5572 60.0224L48.1077 24.4263H42.6859L45.0803 63.5514H46.2362L40.2365 84.7556H42.741ZM70.9781 63.5514L71.0331 63.49C74.3357 59.8076 77.0053 55.4195 79.0144 50.3562C80.6106 46.2443 81.5739 41.5493 81.5739 37.8362C81.5739 35.3506 81.0785 32.2513 80.2528 29.735C79.3997 27.1881 77.5007 23.475 75.8769 21.0815L75.8219 20.9894L70.2625 22.2783L70.4552 22.4931C71.1432 23.2602 71.501 23.7512 72.3541 24.9787C72.5468 25.2548 72.767 25.5924 73.0422 25.9606H69.0516L68.9965 25.9913C66.9324 27.9859 65.2261 30.3794 63.7949 33.356C62.1712 36.977 61.318 41.2731 61.318 45.784C61.318 49.1288 61.7859 52.4122 62.7216 55.5422C63.2445 57.2913 64.2903 60.0838 66.2719 63.4593L66.3269 63.5514H70.9781ZM76.1796 33.1412C76.7851 35.1051 77.0603 37.1611 77.0603 39.7695C77.0603 44.8634 75.8769 48.8526 75.1889 50.7858C73.6752 55.2047 71.556 59.0098 68.7213 62.4466C67.1801 59.6542 66.6297 57.5061 66.2169 55.7263C65.6664 53.701 65.3086 51.7064 65.3086 48.0855C65.3086 43.4825 66.1343 39.2478 67.758 35.5347C69.1617 32.2206 71.0882 29.3975 73.6477 26.9426C74.9412 29.3975 75.6567 31.5762 76.1796 33.1412ZM109.123 64.2264L111.104 63.49L128.801 7.91707L121.7 63.5514H124.645L134.278 1.13539L127.177 0.0920593L111.077 55.3581L109.068 2.20941H101.472L96.463 63.5514H99.2427L104.995 9.4207L109.123 64.2264ZM136.122 63.5514L143.002 24.4263H137.745L133.507 63.5514H136.122ZM145.011 15.3125C145.011 17.2457 143.607 18.8107 141.874 18.8107C140.14 18.8107 138.736 17.2457 138.736 15.3125C138.736 13.3792 140.14 11.8142 141.874 11.8142C143.58 11.7835 145.011 13.3792 145.011 15.3125ZM154.341 63.5514L154.396 63.49C157.698 59.8076 160.368 55.4195 162.377 50.3562C163.973 46.2443 164.937 41.5493 164.937 37.8362C164.937 35.3506 164.441 32.2513 163.616 29.735C162.762 27.1881 160.863 23.475 159.24 21.0815L159.185 20.9894L153.625 22.2783L153.818 22.4931C154.506 23.2602 154.864 23.7512 155.717 24.9787C155.91 25.2548 156.13 25.5924 156.405 25.9606H152.414L152.359 25.9913C150.295 27.9859 148.589 30.3794 147.158 33.356C145.534 36.977 144.681 41.2731 144.681 45.784C144.681 49.1288 145.149 52.4122 146.084 55.5422C146.607 57.2913 147.653 60.0838 149.635 63.4593L149.69 63.5514H154.341ZM159.542 33.1412C160.148 35.1051 160.423 37.1611 160.423 39.7695C160.423 44.8634 159.24 48.8526 158.552 50.7858C157.038 55.2047 154.919 59.0098 152.084 62.4466C150.543 59.6235 149.992 57.5061 149.58 55.7263C149.029 53.701 148.671 51.7064 148.671 48.0855C148.671 43.4825 149.497 39.2478 151.121 35.5347C152.524 32.2206 154.451 29.3975 157.01 26.9426C158.304 29.4282 159.02 31.5762 159.542 33.1412Z" fill="#B4AAA6"/>
</svg>
