<svg width="182" height="86" viewBox="0 0 182 86" fill="none" xmlns="http://www.w3.org/2000/svg">
<path d="M142.118 1.4834L132.625 64.1729H130.677L137.707 8.03711L136.733 7.8252L119.109 64.2285L117.981 64.6553L113.903 9.46973L112.907 9.45508L107.202 64.1729H105.414L110.343 2.6582H116.995L118.987 56.3418L119.968 56.4609L135.946 0.558594L142.118 1.4834ZM175.702 21.8955C177.275 24.3063 179.077 27.9177 179.892 30.3965C180.701 32.9121 181.187 36.0174 181.188 38.4961C181.188 42.2078 180.24 46.9306 178.662 51.0742C176.691 56.1366 174.081 60.5204 170.863 64.2031H168.972L169.224 63.8916C172.097 60.341 174.245 56.41 175.776 51.8525L175.775 51.8516C176.431 49.9718 177.526 46.2339 177.66 41.4404L177.674 40.4668C177.674 37.7716 177.394 35.6252 176.771 33.5664H176.772L176.769 33.5557L176.332 32.2451C175.846 30.8262 175.191 29.0948 174.207 27.167L174.067 26.8936H174.143L173.559 26.0977C173.29 25.7307 173.085 25.4081 172.881 25.1104H172.88C172.176 24.0781 171.798 23.544 171.291 22.9375L175.702 21.8955ZM173.559 26.8936L173.412 27.0371C170.804 29.5864 168.84 32.5182 167.412 35.9531C165.758 39.8076 164.922 44.1921 164.922 48.9414C164.922 52.6629 165.284 54.7377 165.843 56.8389V56.8398C166.26 58.6747 166.824 60.8809 168.395 63.8135L168.604 64.2031H166.73C164.829 60.8709 163.82 58.1218 163.315 56.4004L163.147 55.8086C162.337 52.8448 161.932 49.7484 161.932 46.5957C161.932 42.058 162.774 37.7499 164.366 34.1318L164.365 34.1309C165.747 31.2057 167.385 28.8555 169.35 26.8936H173.559ZM84.7031 21.876C86.276 24.2867 88.077 27.8975 88.8916 30.376C89.7011 32.8915 90.1874 35.9969 90.1875 38.4756C90.1875 42.1872 89.2399 46.9101 87.6621 51.0537C85.6911 56.116 83.0806 60.4999 79.8633 64.1826H77.9727L78.2236 63.8721C81.0972 60.3215 83.2445 56.3903 84.7764 51.833L84.7754 51.832C85.4314 49.9524 86.5259 46.214 86.6602 41.4199L86.6738 40.4463C86.6738 37.7513 86.3942 35.6055 85.7715 33.5469V33.5459L85.7686 33.5352L85.332 32.2246C84.8456 30.8057 84.1914 29.0743 83.207 27.1465L83.0674 26.873H83.1426L82.5586 26.0771C82.2895 25.7102 82.0837 25.3876 81.8799 25.0898C81.1761 24.0579 80.7974 23.5243 80.291 22.918L84.7031 21.876ZM82.5586 26.873L82.4121 27.0166C79.8039 29.5661 77.8404 32.4984 76.4121 35.9336C74.7582 39.788 73.9219 44.1719 73.9219 48.9209C73.9219 52.6422 74.2836 54.7173 74.8428 56.8184V56.8193C75.2604 58.6543 75.8236 60.8603 77.3945 63.793L77.6035 64.1826H75.7295C73.8277 60.8505 72.8204 58.1011 72.3154 56.3799L72.1475 55.7891C71.3912 53.0225 70.9879 50.1406 70.9375 47.2051L70.9316 46.5762C70.9316 42.0383 71.7742 37.7295 73.3662 34.1113L73.3652 34.1104C74.7467 31.1852 76.3849 28.835 78.3496 26.873H82.5586Z" fill="#B4AAA6" stroke="#B4AAA6"/>
<path d="M70.7768 23.8063H65.4643L60.1518 64.6712H63.1875L70.7768 23.8063Z" fill="#B4AAA6"/>
<path d="M56.3572 26.0766H51.0447C47.25 57.1036 48.0089 60.8874 57.1161 64.6712H60.1518C50.8757 60.5932 49.4941 52.956 56.3572 26.0766Z" fill="#B4AAA6"/>
<path d="M28.0982 28.3469H33.4107L22.7857 85.8607H20.5089L28.0982 28.3469Z" fill="#B4AAA6"/>
<path d="M31.1339 24.5631L35.6875 23.0496C54.7127 34.7248 44.7946 51.8063 29.6161 64.6712H27.3393V63.5234C31.8929 57.8604 55.0034 43.2728 31.1339 24.5631Z" fill="#B4AAA6"/>
<path d="M31.1161 1.90234L7.58929 38.9834C15.9375 44.2807 22.0089 44.2807 10.625 64.7132H13.6607C22.0089 48.8213 28.0804 45.7942 12.1429 38.2267L37.1875 1.90234H31.1161Z" fill="#B4AAA6"/>
<path d="M2.27679 64.7132L13.6607 4.92937H8.34821L0 64.7132H2.27679Z" fill="#B4AAA6"/>
<path d="M147.58 26.1082H142.268C138.473 57.1352 139.232 60.9193 148.339 64.7031H151.375C142.099 60.6251 140.717 52.9876 147.58 26.1082Z" fill="#B4AAA6"/>
<path d="M162 23.8379H156.688L151.375 64.7031H154.411L162 23.8379Z" fill="#B4AAA6"/>
</svg>
